# File created by Blade
# Date/Time:  Thu Jan 22 19:01:15 2015
# Frame Rate: 120.000 fps
#------------------------------------------------------
:FULLY-SPECIFIED
:DEGREES
2957
root -2.908521 33.214990 -0.857151 8.289632 -0.028248 2.735875
RightUpLeg -3.201837 -8.715829 -1.681155
RightLeg 1.720134 -0.000000 -0.000000
RightFoot -11.749805 -2.140626 3.148867
RightToeBase 5.353129 -0.000000 -0.000000
LeftUpLeg -4.146299 2.399489 1.136094
LeftLeg 3.687207 -0.000000 -0.000000
LeftFoot -10.687118 1.206540 -9.910746
LeftToeBase 7.549781 -0.000000 -0.000000
Spine -7.253941 8.320097 -1.876139
RightShoulder -17.809019 -44.001072 -7.932911
RightArm 99.209759 -67.936757 -17.177559
RightForeArm -31.877702 -0.000000 104.139703
RightHand 15.840496 0.000000 14.687500
RightHandThumb1 -24.326973 -0.000000 -32.862282
LeftShoulder -25.855527 27.188944 22.771340
LeftArm 5.445235 60.401656 -45.183313
LeftForeArm -5.626369 0.000000 116.738118
LeftHand 0.667270 -0.000000 -42.516397
LeftHandThumb1 -26.253704 0.000000 33.147579
Head 22.810662 -0.364161 7.078498
2958
root -2.908358 33.217069 -0.865074 8.380770 -0.372910 2.693584
RightUpLeg -3.376162 -8.558587 -1.656553
RightLeg 1.725503 -0.000000 -0.000000
RightFoot -11.656457 -1.979355 3.106716
RightToeBase 5.373769 -0.000000 -0.000000
LeftUpLeg -4.180261 2.583238 1.130136
LeftLeg 3.659516 -0.000000 -0.000000
LeftFoot -10.732965 1.368139 -9.932844
LeftToeBase 7.511414 -0.000000 -0.000000
Spine -7.263075 8.547032 -1.994225
RightShoulder -17.952400 -44.058844 -7.817032
RightArm 99.102227 -68.036740 -17.060422
RightForeArm -31.848015 -0.000000 104.193014
RightHand 15.849668 -0.000000 14.924530
RightHandThumb1 -24.326973 -0.000000 -32.862282
LeftShoulder -26.146500 27.600078 22.378488
LeftArm 3.511700 60.768454 -47.959535
LeftForeArm -4.779386 -0.000000 116.849423
LeftHand 0.869571 -0.000000 -41.867134
LeftHandThumb1 -26.253704 0.000000 33.147579
Head 22.936398 -0.233617 7.217188
2959
root -2.910720 33.219548 -0.872652 8.454405 -0.700147 2.649936
RightUpLeg -3.521854 -8.397730 -1.627000
RightLeg 1.718511 -0.000000 -0.000000
RightFoot -11.567170 -1.822218 3.080174
RightToeBase 5.360526 -0.000000 -0.000000
LeftUpLeg -4.206457 2.763964 1.132659
LeftLeg 3.646867 -0.000000 -0.000000
LeftFoot -10.770939 1.509956 -9.993482
LeftToeBase 7.518305 -0.000000 -0.000000
Spine -7.257203 8.810530 -2.139553
RightShoulder -18.131514 -44.153224 -7.634078
RightArm 98.888690 -68.078225 -16.853763
RightForeArm -31.823270 -0.000000 104.243611
RightHand 15.858526 0.000000 15.156637
RightHandThumb1 -24.326973 -0.000000 -32.862282
LeftShoulder -26.348828 27.905575 22.140370
LeftArm 1.405151 61.144334 -50.885932
LeftForeArm -3.796497 -0.000000 116.959337
LeftHand 1.118080 0.000000 -41.214645
LeftHandThumb1 -26.253704 0.000000 33.147579
Head 23.064138 -0.154869 7.409171
2960
root -2.916866 33.221055 -0.880827 8.547196 -1.036675 2.605681
RightUpLeg -3.680343 -8.264922 -1.588915
RightLeg 1.687817 -0.000000 -0.000000
RightFoot -11.448166 -1.617175 3.088960
RightToeBase 5.276656 -0.000000 -0.000000
LeftUpLeg -4.252669 2.940486 1.143505
LeftLeg 3.636287 -0.000000 -0.000000
LeftFoot -10.824956 1.643279 -10.033920
LeftToeBase 7.572072 -0.000000 -0.000000
Spine -7.302892 9.122307 -2.311131
RightShoulder -18.262013 -44.201976 -7.486332
RightArm 98.741997 -68.202370 -16.682546
RightForeArm -31.853604 -0.000000 104.285232
RightHand 15.923037 -0.000000 15.324529
RightHandThumb1 -24.326973 -0.000000 -32.862282
LeftShoulder -26.476920 28.261512 21.958089
LeftArm -0.533144 61.428693 -53.643011
LeftForeArm -3.064657 -0.000000 116.994599
LeftHand 1.208120 -0.000000 -40.765814
LeftHandThumb1 -26.253704 0.000000 33.147579
Head 23.222362 -0.112188 7.563283
2961
root -2.920039 33.222585 -0.882611 8.597487 -1.344407 2.565225
RightUpLeg -3.765814 -8.167195 -1.564183
RightLeg 1.634588 -0.000000 -0.000000
RightFoot -11.359718 -1.442532 2.986897
RightToeBase 5.360089 -0.000000 -0.000000
LeftUpLeg -4.251364 3.089182 1.148367
LeftLeg 3.629696 -0.000000 -0.000000
LeftFoot -10.875442 1.802058 -10.052074
LeftToeBase 7.543229 -0.000000 -0.000000
Spine -7.310481 9.409149 -2.447683
RightShoulder -18.412248 -44.257243 -7.353362
RightArm 98.759782 -68.252106 -16.696667
RightForeArm -31.820003 -0.000000 104.300861
RightHand 15.961253 -0.000000 15.418160
RightHandThumb1 -24.326973 -0.000000 -32.862282
LeftShoulder -26.615519 28.552032 21.793892
LeftArm -2.390082 61.746975 -56.246780
LeftForeArm -2.577314 -0.000000 116.936649
LeftHand 1.242029 -0.000000 -40.761199
LeftHandThumb1 -26.253704 0.000000 33.147579
Head 23.399307 -0.010784 7.660805
2962
root -2.921542 33.224094 -0.885492 8.637328 -1.605157 2.531853
RightUpLeg -3.833936 -8.058620 -1.546497
RightLeg 1.583409 -0.000000 -0.000000
RightFoot -11.276021 -1.303596 2.951149
RightToeBase 5.368683 -0.000000 -0.000000
LeftUpLeg -4.264626 3.183174 1.151020
LeftLeg 3.656741 -0.000000 -0.000000
LeftFoot -10.946634 1.947477 -10.111791
LeftToeBase 7.558367 -0.000000 -0.000000
Spine -7.325656 9.709103 -2.572798
RightShoulder -18.561028 -44.272817 -7.249355
RightArm 98.982168 -68.327422 -16.911434
RightForeArm -32.119420 -0.000000 104.296603
RightHand 16.101540 0.000000 15.421724
RightHandThumb1 -24.326973 -0.000000 -32.862282
LeftShoulder -26.622330 28.816737 21.709342
LeftArm -4.190172 62.072288 -58.766771
LeftForeArm -2.495973 0.000000 116.773997
LeftHand 1.049231 -0.000000 -40.583854
LeftHandThumb1 -26.253704 0.000000 33.147579
Head 23.619403 0.053326 7.711841
2963
root -2.922309 33.225681 -0.887906 8.707967 -1.839561 2.491126
RightUpLeg -3.918264 -7.972404 -1.518894
RightLeg 1.507768 -0.000000 -0.000000
RightFoot -11.148557 -1.128025 2.977527
RightToeBase 5.267483 -0.000000 -0.000000
LeftUpLeg -4.313230 3.244534 1.161667
LeftLeg 3.688980 -0.000000 -0.000000
LeftFoot -11.015162 2.119037 -10.138799
LeftToeBase 7.520677 -0.000000 -0.000000
Spine -7.367582 9.890982 -2.680856
RightShoulder -18.577429 -44.272502 -7.203062
RightArm 98.988157 -68.390041 -16.954119
RightForeArm -32.170999 0.000000 104.302947
RightHand 16.058622 -0.000000 15.405482
RightHandThumb1 -24.326973 -0.000000 -32.862282
LeftShoulder -26.754011 29.123530 21.606583
LeftArm -5.736830 62.359044 -61.052761
LeftForeArm -2.484138 -0.000000 116.507729
LeftHand 0.786315 -0.000000 -40.533049
LeftHandThumb1 -26.253704 0.000000 33.147579
Head 23.809785 0.211489 7.770820
2964
root -2.925212 33.226620 -0.888937 8.760346 -2.041800 2.457303
RightUpLeg -3.965071 -7.892379 -1.495361
RightLeg 1.420382 -0.000000 -0.000000
RightFoot -11.066506 -1.018178 2.921741
RightToeBase 5.331125 -0.000000 -0.000000
LeftUpLeg -4.347224 3.338102 1.172520
LeftLeg 3.719050 -0.000000 -0.000000
LeftFoot -11.070907 2.219306 -10.168733
LeftToeBase 7.530477 -0.000000 -0.000000
Spine -7.409477 10.103402 -2.798629
RightShoulder -18.631936 -44.309696 -7.106559
RightArm 98.880970 -68.428060 -16.873697
RightForeArm -32.198666 -0.000000 104.318154
RightHand 16.078102 -0.000000 15.412698
RightHandThumb1 -24.326973 -0.000000 -32.862282
LeftShoulder -26.798256 29.354973 21.566960
LeftArm -7.157962 62.641535 -63.121336
LeftForeArm -2.784527 -0.000000 116.198411
LeftHand 0.416037 0.000000 -40.558489
LeftHandThumb1 -26.253704 0.000000 33.147579
Head 24.036173 0.336706 7.816646
2965
root -2.927592 33.226791 -0.887953 8.778489 -2.197259 2.434653
RightUpLeg -3.965369 -7.874197 -1.484162
RightLeg 1.327722 -0.000000 -0.000000
RightFoot -10.986764 -0.867425 2.903905
RightToeBase 5.341783 -0.000000 -0.000000
LeftUpLeg -4.353770 3.366436 1.181202
LeftLeg 3.756487 -0.000000 -0.000000
LeftFoot -11.134673 2.329765 -10.202297
LeftToeBase 7.506976 -0.000000 -0.000000
Spine -7.413937 10.294881 -2.911610
RightShoulder -18.702857 -44.362719 -7.001914
RightArm 98.805275 -68.402522 -16.819507
RightForeArm -32.273611 -0.000000 104.311170
RightHand 16.124669 -0.000000 15.375651
RightHandThumb1 -24.326973 -0.000000 -32.862282
LeftShoulder -26.812715 29.522152 21.578607
LeftArm -8.466439 62.932395 -65.046391
LeftForeArm -3.036880 -0.000000 115.910826
LeftHand 0.077126 -0.000000 -40.353225
LeftHandThumb1 -26.253704 0.000000 33.147579
Head 24.242544 0.374310 7.835145
2966
root -2.930715 33.227474 -0.889225 8.808480 -2.305265 2.414967
RightUpLeg -3.971958 -7.828433 -1.469396
RightLeg 1.232849 -0.000000 -0.000000
RightFoot -10.906344 -0.789372 2.905659
RightToeBase 5.309140 -0.000000 -0.000000
LeftUpLeg -4.393891 3.387436 1.190573
LeftLeg 3.812196 -0.000000 -0.000000
LeftFoot -11.182518 2.417543 -10.220472
LeftToeBase 7.521666 -0.000000 -0.000000
Spine -7.415383 10.467960 -3.016213
RightShoulder -18.811001 -44.333182 -6.887663
RightArm 98.813466 -68.419070 -16.879637
RightForeArm -32.336183 0.000000 104.320401
RightHand 16.195345 -0.000000 15.313709
RightHandThumb1 -24.326973 -0.000000 -32.862282
LeftShoulder -26.847868 29.696224 21.534690
LeftArm -9.414065 63.180765 -66.503821
LeftForeArm -3.318207 -0.000000 115.672003
LeftHand -0.211261 -0.000000 -39.937851
LeftHandThumb1 -26.253704 0.000000 33.147579
Head 24.430497 0.421972 7.851180
2967
root -2.932505 33.226740 -0.888688 8.808161 -2.371116 2.402566
RightUpLeg -3.933608 -7.790839 -1.466515
RightLeg 1.134489 -0.000000 -0.000000
RightFoot -10.846986 -0.734750 2.928788
RightToeBase 5.354623 -0.000000 -0.000000
LeftUpLeg -4.408147 3.366527 1.196540
LeftLeg 3.869738 -0.000000 -0.000000
LeftFoot -11.245379 2.503570 -10.238756
LeftToeBase 7.538523 -0.000000 -0.000000
Spine -7.394757 10.602393 -3.095745
RightShoulder -18.862616 -44.353601 -6.838921
RightArm 98.835170 -68.390046 -16.939437
RightForeArm -32.423706 -0.000000 104.297210
RightHand 16.218234 -0.000000 15.157787
RightHandThumb1 -24.326973 -0.000000 -32.862282
LeftShoulder -26.832688 29.854040 21.497882
LeftArm -10.250968 63.392645 -67.798730
LeftForeArm -3.389800 0.000000 115.431116
LeftHand -0.297480 -0.000000 -39.603077
LeftHandThumb1 -26.253704 0.000000 33.147579
Head 24.631032 0.433222 7.813603
2968
root -2.934064 33.225734 -0.888906 8.801807 -2.380440 2.395387
RightUpLeg -3.877716 -7.767776 -1.462257
RightLeg 1.030636 -0.000000 -0.000000
RightFoot -10.796202 -0.743693 2.898621
RightToeBase 5.325290 -0.000000 -0.000000
LeftUpLeg -4.437605 3.314068 1.206035
LeftLeg 3.949711 -0.000000 -0.000000
LeftFoot -11.300101 2.565225 -10.257030
LeftToeBase 7.486348 -0.000000 -0.000000
Spine -7.367445 10.703760 -3.163905
RightShoulder -18.905294 -44.371024 -6.816339
RightArm 98.810964 -68.365436 -16.958205
RightForeArm -32.559030 -0.000000 104.261370
RightHand 16.189569 -0.000000 14.950249
RightHandThumb1 -24.326973 -0.000000 -32.862282
LeftShoulder -26.790840 29.968417 21.469559
LeftArm -10.991985 63.565018 -68.898720
LeftForeArm -3.358867 -0.000000 115.258687
LeftHand -0.429277 -0.000000 -39.132655
LeftHandThumb1 -26.253704 0.000000 33.147579
Head 24.843584 0.407147 7.781970
2969
root -2.936385 33.224757 -0.889835 8.790938 -2.341676 2.396489
RightUpLeg -3.816491 -7.750022 -1.460545
RightLeg 0.936377 -0.000000 -0.000000
RightFoot -10.762181 -0.791549 2.919919
RightToeBase 5.337777 -0.000000 -0.000000
LeftUpLeg -4.480685 3.242135 1.213610
LeftLeg 4.047200 -0.000000 -0.000000
LeftFoot -11.359192 2.600248 -10.280408
LeftToeBase 7.584506 -0.000000 -0.000000
Spine -7.319308 10.756064 -3.253080
RightShoulder -18.960978 -44.345686 -6.768958
RightArm 98.780853 -68.323411 -17.023210
RightForeArm -32.702459 -0.000000 104.240159
RightHand 16.182705 -0.000000 14.747900
RightHandThumb1 -24.326973 -0.000000 -32.862282
LeftShoulder -26.775056 30.063778 21.460782
LeftArm -11.543339 63.784127 -69.775213
LeftForeArm -3.420681 0.000000 115.060679
LeftHand -0.553692 -0.000000 -38.522199
LeftHandThumb1 -26.253704 0.000000 33.147579
Head 25.008420 0.349169 7.800110
